<?xml version="1.0" standalone="no"?>
<!DOCTYPE svg PUBLIC "-//W3C//DTD SVG 20010904//EN"
 "http://www.w3.org/TR/2001/REC-SVG-20010904/DTD/svg10.dtd">
<svg version="1.0" xmlns="http://www.w3.org/2000/svg"
 width="1920.000000pt" height="1080.000000pt" viewBox="0 0 1920.000000 1080.000000"
 preserveAspectRatio="xMidYMid meet">

<g transform="translate(0.000000,1080.000000) scale(0.100000,-0.100000)"
fill="#000000" stroke="none">
<path d="M4880 6654 c-360 -32 -783 -160 -1170 -354 -253 -127 -568 -339 -743
-500 -138 -127 -214 -275 -205 -395 3 -33 15 -78 26 -100 23 -45 89 -111 142
-143 72 -42 228 -88 383 -113 43 -6 74 -15 70 -18 -4 -4 -46 -22 -93 -41 -437
-174 -870 -428 -1048 -613 -79 -83 -106 -140 -100 -214 16 -193 325 -221 877
-77 73 19 135 33 137 31 2 -2 -30 -34 -71 -71 -84 -76 -109 -113 -99 -151 7
-27 49 -55 84 -55 34 0 60 18 150 104 47 45 128 116 181 159 77 62 103 77 130
77 26 0 31 3 19 10 -13 9 -9 15 19 40 46 40 104 67 316 151 231 91 340 138
613 266 200 93 226 103 240 90 42 -37 98 -26 170 33 43 35 48 36 55 11 2 -11
19 -27 37 -36 46 -24 88 -9 175 60 l70 56 6 -38 c4 -23 17 -46 35 -61 24 -21
35 -24 84 -19 31 3 71 12 88 21 30 15 33 15 68 -9 68 -46 175 -59 266 -31 27
8 52 10 59 5 19 -12 66 -11 89 1 10 5 35 33 56 62 60 83 107 138 132 154 22
14 25 14 46 -9 19 -21 20 -27 9 -53 -42 -100 28 -175 149 -161 27 4 69 17 92
30 l42 23 28 -20 c33 -25 121 -27 176 -4 34 15 35 15 61 -16 25 -29 31 -31 95
-31 53 0 82 6 125 26 l55 26 28 -23 c59 -52 173 -28 268 55 l44 39 17 -29 c22
-39 79 -63 130 -55 119 19 273 162 247 230 -11 30 -53 50 -87 41 -13 -3 -41
-21 -62 -40 -21 -19 -41 -35 -44 -35 -8 0 99 261 184 448 135 297 135 298 79
327 -50 26 -98 15 -130 -28 -8 -12 -79 -136 -156 -276 l-141 -256 -77 -6
c-125 -11 -203 -60 -279 -175 -23 -34 -49 -57 -94 -82 -60 -32 -63 -33 -63
-13 0 30 68 210 199 528 119 291 123 308 74 340 -49 32 -121 6 -139 -51 -4
-12 -59 -142 -122 -291 -63 -148 -127 -305 -142 -349 -20 -54 -40 -90 -66
-117 -21 -22 -41 -39 -44 -39 -4 0 -2 24 3 53 17 99 14 134 -15 164 -20 20
-39 27 -80 31 -47 4 -62 -1 -131 -36 -75 -39 -78 -40 -88 -20 -19 35 -72 50
-136 38 -45 -8 -60 -7 -72 3 -48 41 -106 21 -147 -50 -47 -82 -66 -111 -59
-86 9 34 -19 90 -56 109 -45 23 -138 15 -210 -19 -32 -15 -76 -49 -107 -82
-58 -60 -77 -70 -62 -29 6 14 10 43 10 64 0 78 -81 93 -186 35 -49 -26 -65
-31 -71 -21 -11 18 -48 36 -75 36 -13 0 -47 -11 -76 -25 -30 -14 -56 -25 -57
-25 -2 0 -5 15 -7 33 -2 25 -11 36 -40 52 -34 18 -39 18 -70 3 -27 -12 -42
-32 -71 -92 -35 -74 -38 -76 -72 -76 -60 0 -181 -29 -317 -77 -247 -85 -481
-202 -746 -370 -110 -71 -158 -94 -274 -134 -264 -93 -570 -181 -723 -208
-174 -32 -317 -33 -347 -3 -16 16 2 51 54 108 180 195 686 471 1223 666 172
63 192 68 325 84 247 29 385 67 410 113 16 31 12 76 -9 95 -50 45 -195 40
-384 -14 -147 -43 -233 -54 -357 -47 -312 18 -549 84 -616 172 -28 38 -33 115
-9 171 53 127 305 343 619 530 166 99 435 229 606 292 383 143 780 201 992
144 104 -28 216 -81 266 -127 53 -47 105 -57 145 -25 22 17 27 30 27 62 0 36
-6 47 -45 84 -25 24 -62 52 -82 63 -58 29 -210 81 -285 96 -69 15 -271 26
-348 19z m277 -55 c151 -21 350 -97 405 -156 71 -75 8 -119 -69 -47 -115 107
-368 173 -590 154 -570 -50 -1280 -360 -1754 -768 -200 -171 -271 -321 -209
-442 53 -104 238 -173 551 -206 201 -20 298 -15 439 26 110 32 260 60 320 60
20 0 46 -7 58 -16 29 -20 15 -48 -35 -69 -45 -19 -224 -51 -355 -64 -132 -13
-383 -100 -723 -250 -454 -201 -858 -476 -894 -608 -50 -179 325 -149 1017 82
247 82 256 86 388 170 274 175 531 301 789 388 132 44 160 50 237 51 l87 1 43
90 c33 70 48 91 66 93 33 5 37 -21 13 -87 -11 -32 -21 -61 -21 -65 0 -14 22
-4 100 46 63 40 90 52 123 52 l42 1 -2 -37 c-1 -21 1 -38 5 -38 5 0 30 14 58
32 88 56 151 81 174 68 23 -12 21 -29 -11 -113 -24 -61 -24 -87 -1 -87 26 0
130 74 171 122 44 52 102 80 178 86 52 4 67 1 83 -13 25 -23 25 -41 0 -83 -29
-47 -96 -75 -168 -70 l-57 3 -3 -32 c-9 -92 169 -82 281 17 21 18 57 70 82
115 25 46 52 88 60 95 19 16 45 5 52 -21 4 -15 11 -19 27 -15 127 36 166 30
166 -29 0 -37 -28 -75 -55 -75 -10 0 -15 11 -15 35 0 45 -18 46 -90 3 -40 -24
-74 -59 -128 -130 -58 -77 -79 -98 -98 -98 -14 0 -27 7 -30 15 -5 12 -13 11
-55 -5 -67 -27 -181 -27 -229 -1 -22 11 -39 30 -46 50 -6 19 -14 27 -20 22 -5
-5 -32 -21 -60 -35 -55 -28 -122 -34 -142 -14 -16 16 -15 57 3 108 8 23 15 49
15 57 0 17 -54 -19 -177 -118 -86 -69 -120 -82 -143 -54 -9 11 -5 25 24 72 59
95 50 96 -70 7 -49 -37 -102 -77 -117 -90 -50 -42 -104 -24 -77 25 6 12 9 21
7 21 -1 0 -108 -50 -236 -111 -281 -132 -525 -238 -749 -325 -92 -35 -189 -80
-217 -99 -107 -74 -275 -210 -377 -305 -78 -74 -113 -100 -133 -100 -15 0 -28
7 -32 17 -8 19 125 150 264 260 46 37 81 68 80 70 -2 2 -62 -15 -133 -37 -169
-53 -413 -114 -549 -136 -151 -25 -344 -25 -407 -1 -92 35 -122 111 -79 195
96 188 665 529 1243 744 134 51 159 68 94 68 -68 0 -276 32 -388 60 -184 46
-278 102 -323 194 -55 113 -16 247 113 387 179 194 602 472 955 628 260 116
631 226 837 250 52 6 109 13 125 15 69 8 219 5 292 -5z m1958 -893 c18 -13 18
-16 3 -52 -216 -529 -298 -748 -298 -798 0 -51 37 -58 113 -20 72 37 115 72
134 108 22 45 82 104 128 129 29 15 65 22 126 25 l86 4 133 242 c188 339 186
336 220 336 16 0 32 -5 35 -10 4 -6 -26 -81 -66 -168 -83 -182 -218 -503 -244
-580 -30 -94 0 -95 115 -3 62 50 89 59 97 34 7 -19 -95 -116 -148 -141 -61
-30 -103 -29 -136 4 -22 22 -25 31 -19 67 3 23 9 53 12 65 5 17 -9 7 -47 -34
-30 -32 -65 -68 -79 -81 -81 -76 -183 -101 -221 -54 -10 13 -19 32 -19 42 0
25 -5 24 -43 -5 -84 -64 -188 -85 -227 -46 -11 11 -23 34 -26 49 l-6 29 -45
-28 c-53 -34 -123 -48 -159 -31 -14 6 -30 25 -36 41 l-10 30 -38 -30 c-74 -58
-161 -77 -208 -44 -30 21 -28 58 8 120 75 132 277 238 334 175 38 -42 -3 -93
-45 -55 -18 16 -21 16 -59 -1 -65 -29 -188 -173 -162 -189 12 -7 62 21 102 58
69 64 102 86 130 86 33 0 43 -20 30 -56 -14 -36 -12 -84 3 -90 25 -9 72 17
125 69 28 28 52 58 52 67 0 29 284 706 308 733 18 21 23 21 47 3z"/>
<path d="M5700 5001 c-42 -22 -45 -45 -7 -49 35 -4 77 22 77 48 0 25 -25 26
-70 1z"/>
<path d="M4485 4786 c-152 -56 -455 -196 -455 -211 0 -6 58 17 285 112 183 76
275 119 275 128 0 8 -12 5 -105 -29z"/>
<path d="M7245 5035 c-73 -39 -124 -116 -125 -187 0 -45 11 -48 60 -14 45 31
165 171 165 194 0 23 -60 27 -100 7z m-15 -85 c-22 -31 -40 -46 -40 -34 0 8
51 64 58 64 2 0 -6 -13 -18 -30z"/>
<path d="M10425 6390 c-615 -124 -1461 -605 -1986 -1129 -128 -129 -191 -206
-242 -302 -132 -241 -65 -395 208 -478 174 -54 650 -49 1024 10 257 40 597
126 618 155 19 26 16 57 -7 82 -34 36 -85 34 -270 -13 -300 -76 -622 -115
-960 -118 -221 -1 -288 8 -376 49 -104 49 -116 98 -55 219 56 111 146 221 293
356 507 468 1178 856 1724 999 216 56 349 50 375 -17 22 -58 -17 -182 -122
-381 -67 -129 -72 -160 -31 -192 35 -29 102 -23 138 11 37 35 128 201 175 320
93 234 52 373 -126 428 -86 27 -251 27 -380 1z m363 -45 c168 -50 186 -186 62
-453 -46 -98 -107 -202 -128 -219 -20 -16 -79 -17 -84 -2 -2 7 28 75 67 153
92 182 130 297 120 362 -21 142 -186 160 -522 58 -457 -138 -1013 -444 -1439
-792 -282 -230 -445 -403 -523 -554 -88 -170 -56 -253 121 -315 92 -32 244
-42 498 -31 317 13 507 40 809 114 183 45 241 49 241 19 0 -35 -503 -145 -810
-177 -63 -6 -239 -12 -390 -12 -230 0 -287 3 -345 17 -241 61 -326 171 -265
345 58 165 295 420 645 693 492 383 1103 690 1575 790 109 23 297 25 368 4z"/>
<path d="M15400 6395 c-240 -50 -478 -133 -752 -263 -633 -300 -1340 -860
-1510 -1195 -122 -242 -27 -398 287 -473 87 -21 512 -24 705 -5 249 25 552 82
789 149 100 28 129 87 65 128 -37 25 -105 19 -264 -21 -277 -70 -476 -98 -813
-115 -292 -14 -430 0 -538 55 -80 42 -90 104 -35 214 81 159 290 372 611 621
366 284 826 537 1226 675 275 96 483 121 540 64 47 -47 11 -183 -106 -405 -36
-69 -65 -133 -65 -143 0 -35 33 -63 80 -68 68 -6 98 18 163 134 145 260 185
429 127 533 -30 53 -106 103 -182 119 -66 15 -248 12 -328 -4z m347 -51 c67
-23 102 -51 124 -98 26 -58 23 -115 -12 -220 -31 -93 -121 -275 -165 -333 -20
-26 -32 -33 -60 -33 -20 0 -37 6 -40 13 -3 8 22 65 55 128 245 470 150 592
-356 453 -494 -135 -1135 -500 -1603 -911 -286 -252 -425 -434 -437 -574 -7
-73 16 -115 86 -152 97 -53 184 -68 407 -68 379 0 709 42 1054 135 52 14 104
26 116 26 24 0 62 -25 52 -35 -11 -12 -347 -94 -488 -120 -297 -54 -734 -80
-952 -56 -282 31 -422 142 -388 307 40 193 314 490 745 809 468 347 1038 627
1462 720 136 29 326 34 400 9z"/>
<path d="M11248 5763 c-17 -11 -45 -55 -82 -130 l-56 -113 -62 0 c-121 0 -185
-39 -159 -96 14 -32 75 -58 118 -51 23 4 33 2 33 -7 0 -13 -142 -368 -157
-394 -5 -7 -22 -22 -39 -33 l-31 -19 5 50 c6 62 -13 95 -66 110 -31 10 -47 9
-93 -7 l-57 -19 -26 23 c-15 13 -36 23 -47 23 -26 0 -76 -26 -82 -42 -3 -9
-11 -7 -28 9 -40 36 -77 45 -159 38 -109 -9 -133 -20 -189 -81 -56 -61 -87
-136 -77 -189 8 -43 62 -90 118 -106 51 -13 134 -7 174 14 27 14 31 13 53 -4
26 -21 72 -25 104 -7 12 6 51 38 87 71 l65 59 3 -28 c5 -48 22 -81 48 -93 39
-17 104 -12 164 13 l55 22 30 -32 c57 -60 173 -69 278 -21 48 22 55 22 87 9
48 -19 129 -10 186 22 45 25 46 25 66 6 41 -38 130 -35 210 6 24 13 32 13 56
0 71 -37 217 -36 319 2 l48 18 20 -31 c46 -67 189 -82 300 -30 69 33 210 164
225 209 20 61 -17 108 -72 90 -13 -4 -52 -33 -87 -65 -34 -32 -86 -70 -114
-84 -50 -25 -87 -32 -87 -17 1 30 42 147 112 318 l83 202 107 7 c117 7 158 25
158 69 0 42 -34 61 -121 65 -43 2 -79 4 -79 5 0 1 14 37 30 79 37 96 37 121 4
154 -20 20 -31 24 -57 19 -47 -10 -70 -37 -122 -151 l-48 -105 -67 0 c-111 0
-160 -25 -160 -82 0 -40 40 -63 107 -62 39 0 52 -3 49 -12 -41 -106 -152 -372
-160 -382 -29 -39 -218 -109 -262 -98 -30 8 -30 23 0 65 39 52 65 66 125 66
46 0 56 4 74 27 45 60 -13 118 -118 118 -112 0 -207 -65 -265 -180 -16 -33
-38 -64 -49 -69 -17 -10 -19 -7 -15 37 2 26 7 62 10 80 14 71 -37 122 -121
122 -69 0 -204 -81 -276 -165 -45 -53 -71 -74 -132 -107 -55 -31 -87 -36 -87
-14 0 29 42 147 116 328 l77 186 110 7 c97 7 113 10 134 31 28 28 29 44 4 75
-17 21 -30 24 -100 27 -45 2 -81 7 -81 10 0 3 14 42 31 88 28 73 30 86 20 112
-12 28 -47 52 -74 52 -7 0 -24 -8 -39 -17z m70 -56 c2 -9 -15 -62 -37 -118
-22 -56 -38 -106 -35 -110 3 -5 50 -9 104 -9 96 0 129 -10 93 -28 -10 -5 -63
-10 -118 -11 -61 -1 -104 -7 -111 -14 -16 -16 -166 -384 -193 -471 -25 -82
-26 -109 -4 -131 12 -12 27 -16 55 -12 69 9 130 48 223 141 102 102 189 156
251 156 45 0 56 -6 73 -39 11 -19 10 -26 -3 -39 -14 -14 -18 -14 -49 2 -31 17
-35 17 -65 2 -48 -25 -102 -76 -134 -125 -58 -92 -24 -88 93 11 69 57 88 69
113 66 34 -3 35 -9 21 -94 -6 -33 -4 -42 9 -47 41 -16 137 53 154 110 27 89
132 165 228 167 37 0 59 -5 70 -16 25 -25 8 -41 -38 -34 -45 7 -68 -3 -121
-53 -91 -85 -89 -153 4 -175 38 -8 132 18 224 64 l81 39 92 228 c51 125 92
234 92 241 0 8 -21 12 -69 12 -78 0 -101 6 -101 26 0 15 39 23 135 27 l70 2
55 112 c59 122 80 149 104 140 24 -9 19 -43 -23 -147 -27 -67 -35 -97 -27
-102 6 -4 52 -8 103 -8 86 0 119 -9 92 -26 -14 -8 -36 -10 -139 -13 -41 -1
-81 -5 -88 -9 -18 -12 -180 -403 -203 -491 -22 -86 -17 -119 18 -128 58 -14
192 56 277 146 31 33 56 40 56 17 0 -35 -127 -159 -204 -198 -56 -29 -152 -35
-198 -14 -36 17 -58 51 -58 86 0 25 2 25 -59 -6 -133 -66 -305 -66 -361 1 -11
14 -15 14 -29 1 -27 -25 -104 -56 -139 -56 -46 0 -68 14 -81 51 l-11 31 -31
-26 c-79 -67 -172 -86 -223 -45 l-26 20 -29 -21 c-68 -48 -169 -63 -236 -36
-37 16 -55 42 -55 79 l0 25 -76 -39 c-78 -41 -148 -51 -172 -27 -17 17 -15 78
3 121 8 20 15 39 15 42 0 25 -116 -52 -212 -141 -49 -45 -93 -58 -104 -29 -9
21 122 253 148 261 30 9 53 -17 39 -44 -21 -40 -10 -40 65 -1 75 39 98 45 128
33 35 -14 38 -41 11 -109 -15 -36 -24 -69 -20 -74 8 -14 83 14 139 52 48 32
48 33 142 262 51 127 94 236 94 243 0 8 -22 12 -79 12 -57 0 -82 4 -91 15 -18
22 25 35 113 35 40 0 77 4 84 8 7 4 35 56 62 114 28 58 58 114 67 123 20 20
48 16 52 -8z m-937 -676 c16 -16 29 -39 29 -51 0 -59 -76 -160 -145 -191 -73
-34 -189 -18 -214 29 -23 44 -8 97 47 170 32 42 73 63 117 60 19 -1 37 1 41 5
4 4 27 7 51 7 36 0 50 -6 74 -29z"/>
<path d="M10222 4993 c-50 -24 -85 -76 -86 -126 -1 -38 2 -42 25 -45 64 -8
193 132 159 173 -16 19 -56 19 -98 -2z m36 -55 c-19 -28 -66 -64 -74 -56 -7 8
63 78 78 78 6 0 5 -9 -4 -22z"/>
<path d="M16238 5763 c-17 -11 -45 -55 -82 -130 l-56 -113 -62 0 c-121 0 -185
-39 -159 -96 14 -32 75 -58 118 -51 23 4 33 2 33 -7 0 -13 -142 -368 -157
-394 -5 -7 -22 -22 -39 -33 l-31 -19 5 50 c6 62 -13 95 -66 110 -31 10 -47 9
-93 -7 l-57 -19 -26 23 c-51 43 -103 23 -150 -57 -36 -61 -62 -79 -45 -32 14
42 -9 96 -52 118 -67 34 -205 2 -284 -67 -73 -64 -105 -181 -70 -249 35 -67
182 -100 298 -66 42 12 62 14 76 6 26 -13 67 -13 94 2 12 6 51 38 87 71 l65
59 3 -28 c5 -48 22 -81 48 -93 39 -17 104 -12 164 13 l55 22 30 -32 c53 -55
144 -68 245 -34 36 12 70 17 89 14 52 -11 79 3 124 64 71 96 109 141 134 157
22 15 25 14 53 -14 24 -23 30 -38 30 -71 0 -57 23 -96 73 -122 35 -19 58 -23
138 -23 90 0 99 2 170 37 108 54 189 139 189 200 0 59 -66 77 -118 33 -38 -32
-43 -31 -31 4 14 41 -10 95 -52 117 -42 21 -134 15 -201 -15 l-48 -20 -11 20
c-19 36 -72 51 -136 39 -48 -8 -59 -8 -75 7 -23 21 -69 21 -100 1 -13 -8 -41
-48 -63 -88 -47 -86 -96 -137 -168 -174 -58 -29 -87 -33 -87 -12 0 29 42 147
116 328 l77 186 110 7 c97 7 113 10 134 31 28 28 29 44 4 75 -17 21 -30 24
-100 27 -45 2 -81 7 -81 10 0 3 14 42 31 88 28 73 30 86 20 112 -12 28 -47 52
-74 52 -7 0 -24 -8 -39 -17z m70 -56 c2 -9 -15 -62 -37 -118 -22 -56 -38 -106
-35 -110 3 -5 50 -9 104 -9 96 0 129 -10 93 -28 -10 -5 -63 -10 -118 -11 -61
-1 -104 -7 -111 -14 -16 -16 -166 -384 -193 -471 -25 -82 -26 -109 -4 -131 12
-12 27 -16 55 -12 97 13 207 100 269 212 22 41 46 79 54 85 19 16 45 5 52 -21
4 -15 11 -19 27 -15 127 36 166 30 166 -29 0 -37 -28 -75 -55 -75 -10 0 -15
11 -15 35 0 45 -18 46 -90 3 -39 -24 -74 -59 -126 -128 -61 -81 -77 -95 -101
-95 -20 0 -28 5 -27 17 2 16 -1 16 -26 -2 -67 -48 -169 -63 -235 -36 -37 16
-55 42 -55 79 l0 25 -76 -39 c-78 -41 -148 -51 -172 -27 -17 17 -15 78 3 121
8 20 15 39 15 42 0 25 -116 -52 -213 -142 -36 -34 -54 -44 -75 -41 -20 2 -27
8 -26 23 0 20 -1 19 -50 -4 -54 -26 -156 -39 -220 -27 -100 19 -117 127 -35
220 44 51 101 78 176 84 52 4 67 1 83 -13 25 -23 25 -41 0 -83 -29 -47 -96
-75 -168 -70 l-57 3 -3 -32 c-6 -65 95 -85 196 -38 62 29 156 115 183 167 22
42 54 57 76 35 12 -11 12 -19 4 -35 -21 -40 -10 -40 65 -1 75 39 98 45 128 33
35 -14 38 -41 11 -109 -15 -36 -24 -69 -20 -74 8 -14 83 14 139 52 48 32 48
33 142 262 51 127 94 236 94 243 0 8 -22 12 -79 12 -57 0 -82 4 -91 15 -18 22
25 35 113 35 40 0 77 4 84 8 7 4 35 56 62 114 28 58 58 114 67 123 20 20 48
16 52 -8z m614 -654 c23 -21 23 -40 -2 -81 -29 -47 -96 -75 -168 -70 l-57 3
-3 -32 c-4 -42 26 -63 93 -63 67 0 136 33 214 104 67 59 81 66 81 41 0 -52
-90 -136 -188 -174 -100 -39 -244 -23 -273 32 -6 11 -9 42 -7 69 5 51 38 102
89 140 62 46 185 64 221 31z"/>
<path d="M15170 5001 c-42 -22 -45 -45 -7 -49 35 -4 77 22 77 48 0 25 -25 26
-70 1z"/>
<path d="M16780 5001 c-42 -22 -45 -45 -7 -49 35 -4 77 22 77 48 0 25 -25 26
-70 1z"/>
</g>
</svg>
